<?xml version="1.0" standalone="no"?>
<svg viewBox="0 0 200 200" xmlns="http://www.w3.org/2000/svg">
  <path fill="#0F62FE" d="M33.9,-54.8C40.8,-48.2,41.3,-33.7,47.4,-21.3C53.5,-9,65.2,1,69.3,13.8C73.4,26.5,69.9,42,61.1,54.1C52.4,66.2,38.5,74.9,23.9,77.2C9.4,79.4,-5.7,75.3,-14.6,65.4C-23.4,55.6,-26,40.2,-31.8,29.7C-37.6,19.1,-46.7,13.6,-49.8,5.9C-52.8,-1.8,-49.9,-11.6,-47.6,-23.9C-45.3,-36.2,-43.7,-50.9,-35.9,-57.1C-28.1,-63.3,-14.1,-61,-0.3,-60.5C13.5,-60.1,26.9,-61.4,33.9,-54.8Z" transform="translate(100 100)" />
</svg>
