<?xml version="1.0" standalone="no"?>
<svg viewBox="0 0 200 200" xmlns="http://www.w3.org/2000/svg">
  <path fill="#0F62FE" d="M23.2,-44.7C30,-31.7,35.4,-25.2,44.9,-16.8C54.4,-8.5,68.1,1.6,67.3,9.9C66.5,18.2,51.2,24.7,38.9,27.1C26.6,29.6,17.2,28,6.8,37.5C-3.5,47.1,-14.7,67.8,-22.3,68.8C-29.9,69.9,-33.9,51.4,-41.7,38.4C-49.5,25.4,-61.1,17.9,-66.3,7.2C-71.6,-3.6,-70.5,-17.6,-64.2,-28.5C-58,-39.4,-46.6,-47.1,-35.1,-57.9C-23.5,-68.6,-11.7,-82.5,-1.8,-79.7C8.2,-76.9,16.4,-57.6,23.2,-44.7Z" transform="translate(100 100)" />
</svg>
